<?xml version="1.0" encoding="UTF-8"?>
<svg width="65px" height="125px" viewBox="0 0 65 125" version="1.1" xmlns="http://www.w3.org/2000/svg" xmlns:xlink="http://www.w3.org/1999/xlink">
    <!-- Generator: Sketch 52.5 (67469) - http://www.bohemiancoding.com/sketch -->
    <title>Icons</title>
    <desc>Created with Sketch.</desc>
    <g id="Page-1" stroke="none" stroke-width="1" fill="none" fill-rule="evenodd">
        <g id="Icons" transform="translate(-495.000000, -100.000000)" fill="#2C6798">
            <path d="M546,202 L541.0605,197.166758 C532.747833,189.032913 521.21,190.046626 514.4205,196.696105 L509,202 L509,120.03401 C509,116.703236 511.762667,114 515.166667,114 L539.833333,114 C543.237333,114 546,116.703236 546,120.03401 L546,202 Z M545.8,102 L509.2,102 C502.4595,102 497,107.420805 497,114.100012 L497,216.938015 C497,222.316471 503.5636,225.032923 507.4127,221.21537 L523.1873,205.576104 C525.5663,203.210552 529.4337,203.210552 531.8127,205.576104 L547.5873,221.21537 C551.4364,225.032923 558,222.316471 558,216.938015 L558,114.100012 C558,107.420805 552.5405,102 545.8,102 L545.8,102 Z" id="bookmark-[#1231]"></path>
        </g>
    </g>
</svg>